<svg xmlns="http://www.w3.org/2000/svg" width="1200" height="630" viewBox="0 0 1200 630" role="img" aria-label="Soonex">
  <rect width="1200" height="630" fill="#f4f1ea"/>
  <rect x="48" y="48" width="1104" height="534" rx="28" fill="#ece7dc" stroke="#d9d2c4" stroke-width="1"/>
  <g transform="translate(96 88)" fill="#2F4BDA">
    <path
      fill-rule="evenodd"
      d="M20 4h24a16 16 0 0 1 16 16v24a16 16 0 0 1-16 16H20A16 16 0 0 1 4 44V20A16 16 0 0 1 20 4Zm12 12.5 3.4 10.3 10.3 3.2-10.3 3.2L32 43.5l-3.4-10.3-10.3-3.2 10.3-3.2L32 16.5Z"
      clip-rule="evenodd"
    />
  </g>
  <text x="176" y="148" fill="#1b1c16" font-family="ui-sans-serif, system-ui, sans-serif" font-size="28" font-weight="700">Soonex</text>
  <text x="96" y="320" fill="#1b1c16" font-family="ui-sans-serif, system-ui, sans-serif" font-size="64" font-weight="800">Lorem ipsum dolor sit amet.</text>
  <text x="96" y="400" fill="#5c5a52" font-family="ui-sans-serif, system-ui, sans-serif" font-size="28">Consectetur adipiscing elit · 1 September</text>
  <text x="96" y="528" fill="#5c5a52" font-family="ui-sans-serif, system-ui, sans-serif" font-size="22">Sed do eiusmod tempor incididunt ut labore.</text>
</svg>
